<svg width="16" height="16" viewBox="0 0 16 16" fill="none" xmlns="http://www.w3.org/2000/svg">
<path d="M9.06002 3.36571H13.379C13.5222 3.36571 13.6596 3.30881 13.7609 3.20754C13.8621 3.10627 13.919 2.96892 13.919 2.82571C13.919 2.68249 13.8621 2.54514 13.7609 2.44387C13.6596 2.3426 13.5222 2.28571 13.379 2.28571H9.06002C8.9168 2.28571 8.77945 2.3426 8.67818 2.44387C8.57691 2.54514 8.52002 2.68249 8.52002 2.82571C8.52002 2.96892 8.57691 3.10627 8.67818 3.20754C8.77945 3.30881 8.9168 3.36571 9.06002 3.36571Z" fill="#303133" stroke="#303133" stroke-width="0.3"/>
<path d="M13.379 4.799H7.79C7.69004 4.4755 7.60265 4.14826 7.528 3.818C7.252 2.674 7.114 2.099 6.562 2.099H2.579C1.708 2.099 1 2.929 1 3.95V12.049C1 13.07 1.708 13.9 2.579 13.9H13.379C14.25 13.9 14.959 13.07 14.959 12.048V6.648C14.959 5.629 14.25 4.799 13.379 4.799ZM13.959 12.049C13.959 12.51 13.693 12.901 13.379 12.901H2.579C2.265 12.9 2 12.51 2 12.049V3.95C2 3.489 2.265 3.099 2.579 3.099H6.302C6.382 3.334 6.483 3.752 6.555 4.052C6.835 5.215 6.976 5.799 7.534 5.799H13.378C13.692 5.799 13.958 6.188 13.958 6.649V12.049H13.959Z" fill="#303133" stroke="#303133" stroke-width="0.3"/>
</svg>
